<svg width="192" height="192" viewBox="0 0 192 192" fill="none" xmlns="http://www.w3.org/2000/svg">
<g clip-path="url(#clip0_173_122)">
<rect width="192" height="192" fill="#F0F0F0"/>
<path d="M112.076 74.3333H134.361L184.503 178H162.417L154.126 160.556H93.5709L85.5455 178H63.3928L112.076 74.3333ZM145.835 143.245L123.417 96.1544L101.596 143.245H145.835Z" fill="black"/>
<path d="M20.7603 131.178C23.8113 129.321 26.4201 127.376 28.5867 125.342C30.7975 123.308 32.6104 121.053 34.0254 118.576C35.4403 116.145 36.4794 113.425 37.1427 110.418C37.8059 107.367 38.1376 103.919 38.1376 100.072V10.3333H59.1627V96.2911C59.1627 100.89 58.9638 105.09 58.5658 108.893C58.1679 112.651 57.5046 116.1 56.576 119.24C55.6917 122.423 54.4757 125.342 52.9281 127.995C51.4248 130.648 49.5455 133.168 47.2905 135.556C45.0796 137.943 42.4487 140.243 39.3977 142.454C36.391 144.664 32.8978 146.897 28.9183 149.152L20.7603 131.178Z" fill="black"/>
</g>
<defs>
<clipPath id="clip0_173_122">
<rect width="192" height="192" fill="white"/>
</clipPath>
</defs>
</svg>
